<svg xmlns="http://www.w3.org/2000/svg" width="940" height="434" viewBox="0 0 940 434" font-family="Helvetica, Arial, sans-serif" font-size="11">
<rect x="0" y="0" width="940" height="434" fill="#ffffff"/>
<text x="16" y="22" font-size="15" font-weight="bold" fill="#1f2937">Wall-time ratio to C — best, official</text>
<text x="16" y="40" font-size="12" fill="#6b7280">blue = faster than C, red = slower; grey = no result</text>
<text x="147.0" y="84" text-anchor="start" fill="#1f2937" transform="rotate(-30 147.0 84)">nbody</text>
<text x="221.0" y="84" text-anchor="start" fill="#1f2937" transform="rotate(-30 221.0 84)">fannkuch-redux</text>
<text x="295.0" y="84" text-anchor="start" fill="#1f2937" transform="rotate(-30 295.0 84)">spectral-norm</text>
<text x="369.0" y="84" text-anchor="start" fill="#1f2937" transform="rotate(-30 369.0 84)">mandelbrot</text>
<text x="443.0" y="84" text-anchor="start" fill="#1f2937" transform="rotate(-30 443.0 84)">binary-trees</text>
<text x="517.0" y="84" text-anchor="start" fill="#1f2937" transform="rotate(-30 517.0 84)">fasta</text>
<text x="591.0" y="84" text-anchor="start" fill="#1f2937" transform="rotate(-30 591.0 84)">k-nucleotide</text>
<text x="665.0" y="84" text-anchor="start" fill="#1f2937" transform="rotate(-30 665.0 84)">reverse-complement</text>
<text x="739.0" y="84" text-anchor="start" fill="#1f2937" transform="rotate(-30 739.0 84)">pidigits</text>
<text x="813.0" y="84" text-anchor="start" fill="#1f2937" transform="rotate(-30 813.0 84)">regex-redux</text>
<text x="102" y="109.0" text-anchor="end" fill="#1f2937" font-size="12">Resid</text>
<rect x="110" y="92" width="72" height="24" fill="#f6f4f4"/>
<text x="146.0" y="108.0" text-anchor="middle" fill="#1f2937">1.07</text>
<rect x="184" y="92" width="72" height="24" fill="#a6c0db"/>
<text x="220.0" y="108.0" text-anchor="middle" fill="#1f2937">0.46</text>
<rect x="258" y="92" width="72" height="24" fill="#c6d6e6"/>
<text x="294.0" y="108.0" text-anchor="middle" fill="#1f2937">0.62</text>
<rect x="332" y="92" width="72" height="24" fill="#d3deea"/>
<text x="368.0" y="108.0" text-anchor="middle" fill="#1f2937">0.70</text>
<rect x="406" y="92" width="72" height="24" fill="#3976b4"/>
<text x="442.0" y="108.0" text-anchor="middle" fill="#ffffff">0.16</text>
<rect x="480" y="92" width="72" height="24" fill="#6c99c6"/>
<text x="516.0" y="108.0" text-anchor="middle" fill="#1f2937">0.26</text>
<rect x="554" y="92" width="72" height="24" fill="#f4eeef"/>
<text x="590.0" y="108.0" text-anchor="middle" fill="#1f2937">1.22</text>
<rect x="628" y="92" width="72" height="24" fill="#ebcfd3"/>
<text x="664.0" y="108.0" text-anchor="middle" fill="#1f2937">2.36</text>
<rect x="702" y="92" width="72" height="24" fill="#f4edee"/>
<text x="738.0" y="108.0" text-anchor="middle" fill="#1f2937">1.25</text>
<rect x="776" y="92" width="72" height="24" fill="#efdfe1"/>
<text x="812.0" y="108.0" text-anchor="middle" fill="#1f2937">1.70</text>
<text x="102" y="135.0" text-anchor="end" fill="#1f2937" font-size="12">C</text>
<rect x="110" y="118" width="72" height="24" fill="#f7f7f7"/>
<text x="146.0" y="134.0" text-anchor="middle" fill="#1f2937">1.00</text>
<rect x="184" y="118" width="72" height="24" fill="#f7f7f7"/>
<text x="220.0" y="134.0" text-anchor="middle" fill="#1f2937">1.00</text>
<rect x="258" y="118" width="72" height="24" fill="#f7f7f7"/>
<text x="294.0" y="134.0" text-anchor="middle" fill="#1f2937">1.00</text>
<rect x="332" y="118" width="72" height="24" fill="#f7f7f7"/>
<text x="368.0" y="134.0" text-anchor="middle" fill="#1f2937">1.00</text>
<rect x="406" y="118" width="72" height="24" fill="#f7f7f7"/>
<text x="442.0" y="134.0" text-anchor="middle" fill="#1f2937">1.00</text>
<rect x="480" y="118" width="72" height="24" fill="#f7f7f7"/>
<text x="516.0" y="134.0" text-anchor="middle" fill="#1f2937">1.00</text>
<rect x="554" y="118" width="72" height="24" fill="#f7f7f7"/>
<text x="590.0" y="134.0" text-anchor="middle" fill="#1f2937">1.00</text>
<rect x="628" y="118" width="72" height="24" fill="#f7f7f7"/>
<text x="664.0" y="134.0" text-anchor="middle" fill="#1f2937">1.00</text>
<rect x="702" y="118" width="72" height="24" fill="#f7f7f7"/>
<text x="738.0" y="134.0" text-anchor="middle" fill="#1f2937">1.00</text>
<rect x="776" y="118" width="72" height="24" fill="#f7f7f7"/>
<text x="812.0" y="134.0" text-anchor="middle" fill="#1f2937">1.00</text>
<text x="102" y="161.0" text-anchor="end" fill="#1f2937" font-size="12">C++</text>
<rect x="110" y="144" width="72" height="24" fill="#f3f4f6"/>
<text x="146.0" y="160.0" text-anchor="middle" fill="#1f2937">0.96</text>
<rect x="184" y="144" width="72" height="24" fill="#c2d3e4"/>
<text x="220.0" y="160.0" text-anchor="middle" fill="#1f2937">0.60</text>
<rect x="258" y="144" width="72" height="24" fill="#f6f5f5"/>
<text x="294.0" y="160.0" text-anchor="middle" fill="#1f2937">1.04</text>
<rect x="332" y="144" width="72" height="24" fill="#d3dfea"/>
<text x="368.0" y="160.0" text-anchor="middle" fill="#1f2937">0.71</text>
<rect x="406" y="144" width="72" height="24" fill="#2166ac"/>
<text x="442.0" y="160.0" text-anchor="middle" fill="#ffffff">0.11</text>
<rect x="480" y="144" width="72" height="24" fill="#f5f1f2"/>
<text x="516.0" y="160.0" text-anchor="middle" fill="#1f2937">1.13</text>
<rect x="554" y="144" width="72" height="24" fill="#c1d2e4"/>
<text x="590.0" y="160.0" text-anchor="middle" fill="#1f2937">0.59</text>
<rect x="628" y="144" width="72" height="24" fill="#f5f0f1"/>
<text x="664.0" y="160.0" text-anchor="middle" fill="#1f2937">1.15</text>
<rect x="702" y="144" width="72" height="24" fill="#f6f3f3"/>
<text x="738.0" y="160.0" text-anchor="middle" fill="#1f2937">1.10</text>
<rect x="776" y="144" width="72" height="24" fill="#f6f5f5"/>
<text x="812.0" y="160.0" text-anchor="middle" fill="#1f2937">1.04</text>
<text x="102" y="187.0" text-anchor="end" fill="#1f2937" font-size="12">Rust</text>
<rect x="110" y="170" width="72" height="24" fill="#f6f6f7"/>
<text x="146.0" y="186.0" text-anchor="middle" fill="#1f2937">0.99</text>
<rect x="184" y="170" width="72" height="24" fill="#a6c0db"/>
<text x="220.0" y="186.0" text-anchor="middle" fill="#1f2937">0.45</text>
<rect x="258" y="170" width="72" height="24" fill="#ebeff3"/>
<text x="294.0" y="186.0" text-anchor="middle" fill="#1f2937">0.89</text>
<rect x="332" y="170" width="72" height="24" fill="#dbe4ed"/>
<text x="368.0" y="186.0" text-anchor="middle" fill="#1f2937">0.77</text>
<rect x="406" y="170" width="72" height="24" fill="#2166ac"/>
<text x="442.0" y="186.0" text-anchor="middle" fill="#ffffff">0.08</text>
<rect x="480" y="170" width="72" height="24" fill="#f3f5f6"/>
<text x="516.0" y="186.0" text-anchor="middle" fill="#1f2937">0.97</text>
<rect x="554" y="170" width="72" height="24" fill="#b6cbe0"/>
<text x="590.0" y="186.0" text-anchor="middle" fill="#1f2937">0.53</text>
<rect x="628" y="170" width="72" height="24" fill="#f7f6f6"/>
<text x="664.0" y="186.0" text-anchor="middle" fill="#1f2937">1.03</text>
<rect x="702" y="170" width="72" height="24" fill="#f7f6f6"/>
<text x="738.0" y="186.0" text-anchor="middle" fill="#1f2937">1.02</text>
<rect x="776" y="170" width="72" height="24" fill="#f7f6f6"/>
<text x="812.0" y="186.0" text-anchor="middle" fill="#1f2937">1.03</text>
<text x="102" y="213.0" text-anchor="end" fill="#1f2937" font-size="12">Go</text>
<rect x="110" y="196" width="72" height="24" fill="#efdcde"/>
<text x="146.0" y="212.0" text-anchor="middle" fill="#1f2937">1.81</text>
<rect x="184" y="196" width="72" height="24" fill="#ebd0d3"/>
<text x="220.0" y="212.0" text-anchor="middle" fill="#1f2937">2.35</text>
<rect x="258" y="196" width="72" height="24" fill="#e7c4c8"/>
<text x="294.0" y="212.0" text-anchor="middle" fill="#1f2937">3.04</text>
<rect x="332" y="196" width="72" height="24" fill="#ebcfd3"/>
<text x="368.0" y="212.0" text-anchor="middle" fill="#1f2937">2.37</text>
<rect x="406" y="196" width="72" height="24" fill="#dce4ed"/>
<text x="442.0" y="212.0" text-anchor="middle" fill="#1f2937">0.77</text>
<rect x="480" y="196" width="72" height="24" fill="#f5f1f2"/>
<text x="516.0" y="212.0" text-anchor="middle" fill="#1f2937">1.13</text>
<rect x="554" y="196" width="72" height="24" fill="#f5eff0"/>
<text x="590.0" y="212.0" text-anchor="middle" fill="#1f2937">1.19</text>
<rect x="628" y="196" width="72" height="24" fill="#f2e7e9"/>
<text x="664.0" y="212.0" text-anchor="middle" fill="#1f2937">1.41</text>
<rect x="702" y="196" width="72" height="24" fill="#f5f1f1"/>
<text x="738.0" y="212.0" text-anchor="middle" fill="#1f2937">1.15</text>
<rect x="776" y="196" width="72" height="24" fill="#ebd0d3"/>
<text x="812.0" y="212.0" text-anchor="middle" fill="#1f2937">2.35</text>
<text x="102" y="239.0" text-anchor="end" fill="#1f2937" font-size="12">Java</text>
<rect x="110" y="222" width="72" height="24" fill="#eed8db"/>
<text x="146.0" y="238.0" text-anchor="middle" fill="#1f2937">1.95</text>
<rect x="184" y="222" width="72" height="24" fill="#f5eff0"/>
<text x="220.0" y="238.0" text-anchor="middle" fill="#1f2937">1.18</text>
<rect x="258" y="222" width="72" height="24" fill="#e6c0c5"/>
<text x="294.0" y="238.0" text-anchor="middle" fill="#1f2937">3.30</text>
<rect x="332" y="222" width="72" height="24" fill="#e6c2c6"/>
<text x="368.0" y="238.0" text-anchor="middle" fill="#1f2937">3.20</text>
<rect x="406" y="222" width="72" height="24" fill="#8baed1"/>
<text x="442.0" y="238.0" text-anchor="middle" fill="#1f2937">0.35</text>
<rect x="480" y="222" width="72" height="24" fill="#f2e7e8"/>
<text x="516.0" y="238.0" text-anchor="middle" fill="#1f2937">1.42</text>
<rect x="554" y="222" width="72" height="24" fill="#f6f4f4"/>
<text x="590.0" y="238.0" text-anchor="middle" fill="#1f2937">1.07</text>
<rect x="628" y="222" width="72" height="24" fill="#e7c3c8"/>
<text x="664.0" y="238.0" text-anchor="middle" fill="#1f2937">3.08</text>
<rect x="702" y="222" width="72" height="24" fill="#f5f1f1"/>
<text x="738.0" y="238.0" text-anchor="middle" fill="#1f2937">1.15</text>
<rect x="776" y="222" width="72" height="24" fill="#f0e1e3"/>
<text x="812.0" y="238.0" text-anchor="middle" fill="#1f2937">1.61</text>
<text x="102" y="265.0" text-anchor="end" fill="#1f2937" font-size="12">C#</text>
<rect x="110" y="248" width="72" height="24" fill="#f1e4e6"/>
<text x="146.0" y="264.0" text-anchor="middle" fill="#1f2937">1.51</text>
<rect x="184" y="248" width="72" height="24" fill="#e1e8ef"/>
<text x="220.0" y="264.0" text-anchor="middle" fill="#1f2937">0.81</text>
<rect x="258" y="248" width="72" height="24" fill="#e5bec3"/>
<text x="294.0" y="264.0" text-anchor="middle" fill="#1f2937">3.47</text>
<rect x="332" y="248" width="72" height="24" fill="#f2e7e8"/>
<text x="368.0" y="264.0" text-anchor="middle" fill="#1f2937">1.43</text>
<rect x="406" y="248" width="72" height="24" fill="#f6f2f3"/>
<text x="442.0" y="264.0" text-anchor="middle" fill="#1f2937">1.11</text>
<rect x="480" y="248" width="72" height="24" fill="#f6f4f4"/>
<text x="516.0" y="264.0" text-anchor="middle" fill="#1f2937">1.07</text>
<rect x="554" y="248" width="72" height="24" fill="#f3eaeb"/>
<text x="590.0" y="264.0" text-anchor="middle" fill="#1f2937">1.33</text>
<rect x="628" y="248" width="72" height="24" fill="#f5f2f2"/>
<text x="664.0" y="264.0" text-anchor="middle" fill="#1f2937">1.12</text>
<rect x="702" y="248" width="72" height="24" fill="#f5f1f1"/>
<text x="738.0" y="264.0" text-anchor="middle" fill="#1f2937">1.14</text>
<rect x="776" y="248" width="72" height="24" fill="#f3eaeb"/>
<text x="812.0" y="264.0" text-anchor="middle" fill="#1f2937">1.34</text>
<text x="102" y="291.0" text-anchor="end" fill="#1f2937" font-size="12">JavaScript</text>
<rect x="110" y="274" width="72" height="24" fill="#edd6d9"/>
<text x="146.0" y="290.0" text-anchor="middle" fill="#1f2937">2.04</text>
<rect x="184" y="274" width="72" height="24" fill="#f5f1f1"/>
<text x="220.0" y="290.0" text-anchor="middle" fill="#1f2937">1.14</text>
<rect x="258" y="274" width="72" height="24" fill="#e4babf"/>
<text x="294.0" y="290.0" text-anchor="middle" fill="#1f2937">3.80</text>
<rect x="332" y="274" width="72" height="24" fill="#e6c0c5"/>
<text x="368.0" y="290.0" text-anchor="middle" fill="#1f2937">3.27</text>
<rect x="406" y="274" width="72" height="24" fill="#e8edf2"/>
<text x="442.0" y="290.0" text-anchor="middle" fill="#1f2937">0.87</text>
<rect x="480" y="274" width="72" height="24" fill="#edd7da"/>
<text x="516.0" y="290.0" text-anchor="middle" fill="#1f2937">2.01</text>
<rect x="554" y="274" width="72" height="24" fill="#dda2aa"/>
<text x="590.0" y="290.0" text-anchor="middle" fill="#1f2937">6.30</text>
<rect x="628" y="274" width="72" height="24" fill="#cc6a76"/>
<text x="664.0" y="290.0" text-anchor="middle" fill="#ffffff">21.3</text>
<rect x="702" y="274" width="72" height="24" fill="#d27f89"/>
<text x="738.0" y="290.0" text-anchor="middle" fill="#1f2937">13.6</text>
<rect x="776" y="274" width="72" height="24" fill="#e3b5bb"/>
<text x="812.0" y="290.0" text-anchor="middle" fill="#1f2937">4.20</text>
<text x="102" y="317.0" text-anchor="end" fill="#1f2937" font-size="12">Python</text>
<rect x="110" y="300" width="72" height="24" fill="#b2182b"/>
<text x="146.0" y="316.0" text-anchor="middle" fill="#ffffff">143</text>
<rect x="184" y="300" width="72" height="24" fill="#c75b69"/>
<text x="220.0" y="316.0" text-anchor="middle" fill="#ffffff">29.5</text>
<rect x="258" y="300" width="72" height="24" fill="#b2182b"/>
<text x="294.0" y="316.0" text-anchor="middle" fill="#ffffff">376</text>
<rect x="332" y="300" width="72" height="24" fill="#b2182b"/>
<text x="368.0" y="316.0" text-anchor="middle" fill="#ffffff">208</text>
<rect x="406" y="300" width="72" height="24" fill="#e7c2c6"/>
<text x="442.0" y="316.0" text-anchor="middle" fill="#1f2937">3.18</text>
<rect x="480" y="300" width="72" height="24" fill="#cb6976"/>
<text x="516.0" y="316.0" text-anchor="middle" fill="#ffffff">21.7</text>
<rect x="554" y="300" width="72" height="24" fill="#d58891"/>
<text x="590.0" y="316.0" text-anchor="middle" fill="#1f2937">11.2</text>
<rect x="628" y="300" width="72" height="24" fill="#e3b5bb"/>
<text x="664.0" y="316.0" text-anchor="middle" fill="#1f2937">4.16</text>
<rect x="702" y="300" width="72" height="24" fill="#f1e3e5"/>
<text x="738.0" y="316.0" text-anchor="middle" fill="#1f2937">1.53</text>
<rect x="776" y="300" width="72" height="24" fill="#f1e4e6"/>
<text x="812.0" y="316.0" text-anchor="middle" fill="#1f2937">1.51</text>
<text x="102" y="343.0" text-anchor="end" fill="#1f2937" font-size="12">Fortran</text>
<rect x="110" y="326" width="72" height="24" fill="#efdfe1"/>
<text x="146.0" y="342.0" text-anchor="middle" fill="#1f2937">1.70</text>
<rect x="184" y="326" width="72" height="24" fill="#f4eeef"/>
<text x="220.0" y="342.0" text-anchor="middle" fill="#1f2937">1.20</text>
<rect x="258" y="326" width="72" height="24" fill="#f6f7f7"/>
<text x="294.0" y="342.0" text-anchor="middle" fill="#1f2937">0.99</text>
<rect x="332" y="326" width="72" height="24" fill="#eacdd0"/>
<text x="368.0" y="342.0" text-anchor="middle" fill="#1f2937">2.51</text>
<rect x="406" y="326" width="72" height="24" fill="#2166ac"/>
<text x="442.0" y="342.0" text-anchor="middle" fill="#ffffff">0.10</text>
<rect x="480" y="326" width="72" height="24" fill="#f3ebec"/>
<text x="516.0" y="342.0" text-anchor="middle" fill="#1f2937">1.31</text>
<rect x="554" y="326" width="72" height="24" fill="#e8c5c9"/>
<text x="590.0" y="342.0" text-anchor="middle" fill="#1f2937">2.96</text>
<rect x="628" y="326" width="72" height="24" fill="#e8c7cb"/>
<text x="664.0" y="342.0" text-anchor="middle" fill="#1f2937">2.82</text>
<rect x="702" y="326" width="72" height="24" fill="#f6f3f3"/>
<text x="738.0" y="342.0" text-anchor="middle" fill="#1f2937">1.10</text>
<rect x="776" y="326" width="72" height="24" fill="#f7f6f6"/>
<text x="812.0" y="342.0" text-anchor="middle" fill="#1f2937">1.03</text>
<text x="102" y="369.0" text-anchor="end" fill="#1f2937" font-size="12">Pascal</text>
<rect x="110" y="352" width="72" height="24" fill="#eedadd"/>
<text x="146.0" y="368.0" text-anchor="middle" fill="#1f2937">1.88</text>
<rect x="184" y="352" width="72" height="24" fill="#efdddf"/>
<text x="220.0" y="368.0" text-anchor="middle" fill="#1f2937">1.76</text>
<rect x="258" y="352" width="72" height="24" fill="#edd7da"/>
<text x="294.0" y="368.0" text-anchor="middle" fill="#1f2937">2.01</text>
<rect x="332" y="352" width="72" height="24" fill="#e5bec3"/>
<text x="368.0" y="368.0" text-anchor="middle" fill="#1f2937">3.45</text>
<rect x="406" y="352" width="72" height="24" fill="#2d6eb0"/>
<text x="442.0" y="368.0" text-anchor="middle" fill="#ffffff">0.14</text>
<rect x="480" y="352" width="72" height="24" fill="#e1b1b7"/>
<text x="516.0" y="368.0" text-anchor="middle" fill="#1f2937">4.56</text>
<rect x="554" y="352" width="72" height="24" fill="#d78f98"/>
<text x="590.0" y="368.0" text-anchor="middle" fill="#1f2937">9.56</text>
<rect x="628" y="352" width="72" height="24" fill="#e5bdc2"/>
<text x="664.0" y="368.0" text-anchor="middle" fill="#1f2937">3.56</text>
<rect x="702" y="352" width="72" height="24" fill="#f6f3f3"/>
<text x="738.0" y="368.0" text-anchor="middle" fill="#1f2937">1.10</text>
<rect x="776" y="352" width="72" height="24" fill="#dea5ac"/>
<text x="812.0" y="368.0" text-anchor="middle" fill="#1f2937">5.90</text>
<rect x="110" y="396" width="40" height="12" fill="#2166ac"/>
<text x="130.0" y="422" text-anchor="middle" fill="#6b7280" font-size="10">0.125×</text>
<rect x="150" y="396" width="40" height="12" fill="#6896c5"/>
<text x="170.0" y="422" text-anchor="middle" fill="#6b7280" font-size="10">0.25×</text>
<rect x="190" y="396" width="40" height="12" fill="#b0c7de"/>
<text x="210.0" y="422" text-anchor="middle" fill="#6b7280" font-size="10">0.5×</text>
<rect x="230" y="396" width="40" height="12" fill="#f7f7f7"/>
<text x="250.0" y="422" text-anchor="middle" fill="#6b7280" font-size="10">1×</text>
<rect x="270" y="396" width="40" height="12" fill="#edd7da"/>
<text x="290.0" y="422" text-anchor="middle" fill="#6b7280" font-size="10">2×</text>
<rect x="310" y="396" width="40" height="12" fill="#e3b7bd"/>
<text x="330.0" y="422" text-anchor="middle" fill="#6b7280" font-size="10">4×</text>
<rect x="350" y="396" width="40" height="12" fill="#d997a0"/>
<text x="370.0" y="422" text-anchor="middle" fill="#6b7280" font-size="10">8×</text>
<rect x="390" y="396" width="40" height="12" fill="#d07882"/>
<text x="410.0" y="422" text-anchor="middle" fill="#6b7280" font-size="10">16×</text>
<rect x="430" y="396" width="40" height="12" fill="#c65865"/>
<text x="450.0" y="422" text-anchor="middle" fill="#6b7280" font-size="10">32×</text>
<rect x="470" y="396" width="40" height="12" fill="#bc3848"/>
<text x="490.0" y="422" text-anchor="middle" fill="#6b7280" font-size="10">64×</text>
<rect x="510" y="396" width="40" height="12" fill="#b2182b"/>
<text x="530.0" y="422" text-anchor="middle" fill="#6b7280" font-size="10">128×</text>
<text x="102" y="406" text-anchor="end" fill="#6b7280" font-size="10">vs C</text>
</svg>
