<svg xmlns="http://www.w3.org/2000/svg" width="760" height="368" viewBox="0 0 760 368" font-family="Helvetica, Arial, sans-serif" font-size="12">
<rect x="0" y="0" width="760" height="368" fill="#ffffff"/>
<text x="16" y="22" font-size="15" font-weight="bold" fill="#1f2937">k-nucleotide — best, small</text>
<text x="16" y="40" fill="#6b7280">wall-time ratio to C; lower is faster; log scale</text>
<line x1="120.0" y1="54" x2="120.0" y2="322" stroke="#d1d5db" stroke-width="1"/>
<text x="120.0" y="338" text-anchor="middle" fill="#6b7280" font-size="11">0.1×</text>
<line x1="202.8" y1="54" x2="202.8" y2="322" stroke="#e5e7eb" stroke-width="1"/>
<text x="202.8" y="338" text-anchor="middle" fill="#6b7280" font-size="11">0.2×</text>
<line x1="312.2" y1="54" x2="312.2" y2="322" stroke="#e5e7eb" stroke-width="1"/>
<text x="312.2" y="338" text-anchor="middle" fill="#6b7280" font-size="11">0.5×</text>
<line x1="395.0" y1="54" x2="395.0" y2="322" stroke="#d1d5db" stroke-width="1"/>
<text x="395.0" y="338" text-anchor="middle" fill="#6b7280" font-size="11">1×</text>
<line x1="477.8" y1="54" x2="477.8" y2="322" stroke="#e5e7eb" stroke-width="1"/>
<text x="477.8" y="338" text-anchor="middle" fill="#6b7280" font-size="11">2×</text>
<line x1="587.2" y1="54" x2="587.2" y2="322" stroke="#e5e7eb" stroke-width="1"/>
<text x="587.2" y="338" text-anchor="middle" fill="#6b7280" font-size="11">5×</text>
<line x1="670.0" y1="54" x2="670.0" y2="322" stroke="#d1d5db" stroke-width="1"/>
<text x="670.0" y="338" text-anchor="middle" fill="#6b7280" font-size="11">10×</text>
<text x="112" y="74.0" text-anchor="end" fill="#1f2937">Resid</text>
<rect x="395.0" y="62" width="15.0" height="16" fill="#d97706"/>
<text x="415.0" y="74.0" fill="#1f2937" font-size="11">1.13×  (0.131 s)</text>
<text x="112" y="98.0" text-anchor="end" fill="#1f2937">C</text>
<rect x="395.0" y="86" width="1.5" height="16" fill="#2563eb"/>
<text x="400.0" y="98.0" fill="#1f2937" font-size="11">1.00×  (0.115 s)</text>
<text x="112" y="122.0" text-anchor="end" fill="#1f2937">C++</text>
<rect x="395.0" y="110" width="7.8" height="16" fill="#94a3b8"/>
<text x="407.8" y="122.0" fill="#1f2937" font-size="11">1.07×  (0.123 s)</text>
<text x="112" y="146.0" text-anchor="end" fill="#1f2937">Rust</text>
<rect x="324.6" y="134" width="70.4" height="16" fill="#94a3b8"/>
<text x="400.0" y="146.0" fill="#1f2937" font-size="11">0.55×  (0.064 s)</text>
<text x="112" y="170.0" text-anchor="end" fill="#1f2937">Go</text>
<rect x="395.0" y="158" width="29.2" height="16" fill="#94a3b8"/>
<text x="429.2" y="170.0" fill="#1f2937" font-size="11">1.28×  (0.147 s)</text>
<text x="112" y="194.0" text-anchor="end" fill="#1f2937">Java</text>
<rect x="395.0" y="182" width="79.5" height="16" fill="#94a3b8"/>
<text x="479.5" y="194.0" fill="#1f2937" font-size="11">1.95×  (0.225 s)</text>
<text x="112" y="218.0" text-anchor="end" fill="#1f2937">C#</text>
<rect x="395.0" y="206" width="96.8" height="16" fill="#94a3b8"/>
<text x="496.8" y="218.0" fill="#1f2937" font-size="11">2.25×  (0.260 s)</text>
<text x="112" y="242.0" text-anchor="end" fill="#1f2937">JavaScript</text>
<rect x="395.0" y="230" width="220.5" height="16" fill="#94a3b8"/>
<text x="620.5" y="242.0" fill="#1f2937" font-size="11">6.34×  (0.731 s)</text>
<text x="112" y="266.0" text-anchor="end" fill="#1f2937">Python</text>
<rect x="395.0" y="254" width="269.7" height="16" fill="#94a3b8"/>
<text x="669.7" y="266.0" fill="#1f2937" font-size="11">9.56×  (1.104 s)</text>
<text x="112" y="290.0" text-anchor="end" fill="#1f2937">Fortran</text>
<rect x="395.0" y="278" width="95.2" height="16" fill="#94a3b8"/>
<text x="495.2" y="290.0" fill="#1f2937" font-size="11">2.22×  (0.256 s)</text>
<text x="112" y="314.0" text-anchor="end" fill="#1f2937">Pascal</text>
<rect x="395.0" y="302" width="209.5" height="16" fill="#94a3b8"/>
<text x="609.5" y="314.0" fill="#1f2937" font-size="11">5.78×  (0.667 s)</text>
<line x1="395.0" y1="52" x2="395.0" y2="324" stroke="#1f2937" stroke-width="1.5"/>
<text x="395.0" y="356" text-anchor="middle" fill="#6b7280">ratio to C (C = 1)</text>
</svg>
