<svg xmlns="http://www.w3.org/2000/svg" width="760" height="368" viewBox="0 0 760 368" font-family="Helvetica, Arial, sans-serif" font-size="12">
<rect x="0" y="0" width="760" height="368" fill="#ffffff"/>
<text x="16" y="22" font-size="15" font-weight="bold" fill="#1f2937">mandelbrot — best, small</text>
<text x="16" y="40" fill="#6b7280">wall-time ratio to C; lower is faster; log scale</text>
<line x1="120.0" y1="54" x2="120.0" y2="322" stroke="#d1d5db" stroke-width="1"/>
<text x="120.0" y="338" text-anchor="middle" fill="#6b7280" font-size="11">0.1×</text>
<line x1="161.4" y1="54" x2="161.4" y2="322" stroke="#e5e7eb" stroke-width="1"/>
<line x1="216.1" y1="54" x2="216.1" y2="322" stroke="#e5e7eb" stroke-width="1"/>
<line x1="257.5" y1="54" x2="257.5" y2="322" stroke="#d1d5db" stroke-width="1"/>
<text x="257.5" y="338" text-anchor="middle" fill="#6b7280" font-size="11">1×</text>
<line x1="298.9" y1="54" x2="298.9" y2="322" stroke="#e5e7eb" stroke-width="1"/>
<line x1="353.6" y1="54" x2="353.6" y2="322" stroke="#e5e7eb" stroke-width="1"/>
<line x1="395.0" y1="54" x2="395.0" y2="322" stroke="#d1d5db" stroke-width="1"/>
<text x="395.0" y="338" text-anchor="middle" fill="#6b7280" font-size="11">10×</text>
<line x1="436.4" y1="54" x2="436.4" y2="322" stroke="#e5e7eb" stroke-width="1"/>
<line x1="491.1" y1="54" x2="491.1" y2="322" stroke="#e5e7eb" stroke-width="1"/>
<line x1="532.5" y1="54" x2="532.5" y2="322" stroke="#d1d5db" stroke-width="1"/>
<text x="532.5" y="338" text-anchor="middle" fill="#6b7280" font-size="11">100×</text>
<line x1="573.9" y1="54" x2="573.9" y2="322" stroke="#e5e7eb" stroke-width="1"/>
<line x1="628.6" y1="54" x2="628.6" y2="322" stroke="#e5e7eb" stroke-width="1"/>
<line x1="670.0" y1="54" x2="670.0" y2="322" stroke="#d1d5db" stroke-width="1"/>
<text x="670.0" y="338" text-anchor="middle" fill="#6b7280" font-size="11">1000×</text>
<text x="112" y="74.0" text-anchor="end" fill="#1f2937">Resid</text>
<rect x="237.8" y="62" width="19.7" height="16" fill="#d97706"/>
<text x="262.5" y="74.0" fill="#1f2937" font-size="11">0.72×  (0.011 s)</text>
<text x="112" y="98.0" text-anchor="end" fill="#1f2937">C</text>
<rect x="257.5" y="86" width="1.5" height="16" fill="#2563eb"/>
<text x="262.5" y="98.0" fill="#1f2937" font-size="11">1.00×  (0.016 s)</text>
<text x="112" y="122.0" text-anchor="end" fill="#1f2937">C++</text>
<rect x="242.1" y="110" width="15.4" height="16" fill="#94a3b8"/>
<text x="262.5" y="122.0" fill="#1f2937" font-size="11">0.77×  (0.012 s)</text>
<text x="112" y="146.0" text-anchor="end" fill="#1f2937">Rust</text>
<rect x="244.2" y="134" width="13.3" height="16" fill="#94a3b8"/>
<text x="262.5" y="146.0" fill="#1f2937" font-size="11">0.80×  (0.013 s)</text>
<text x="112" y="170.0" text-anchor="end" fill="#1f2937">Go</text>
<rect x="257.5" y="158" width="52.9" height="16" fill="#94a3b8"/>
<text x="315.4" y="170.0" fill="#1f2937" font-size="11">2.42×  (0.039 s)</text>
<text x="112" y="194.0" text-anchor="end" fill="#1f2937">Java</text>
<rect x="257.5" y="182" width="100.3" height="16" fill="#94a3b8"/>
<text x="362.8" y="194.0" fill="#1f2937" font-size="11">5.37×  (0.085 s)</text>
<text x="112" y="218.0" text-anchor="end" fill="#1f2937">C#</text>
<rect x="257.5" y="206" width="101.8" height="16" fill="#94a3b8"/>
<text x="364.3" y="218.0" fill="#1f2937" font-size="11">5.50×  (0.088 s)</text>
<text x="112" y="242.0" text-anchor="end" fill="#1f2937">JavaScript</text>
<rect x="257.5" y="230" width="125.5" height="16" fill="#94a3b8"/>
<text x="388.0" y="242.0" fill="#1f2937" font-size="11">8.19×  (0.130 s)</text>
<text x="112" y="266.0" text-anchor="end" fill="#1f2937">Python</text>
<rect x="257.5" y="254" width="310.1" height="16" fill="#94a3b8"/>
<text x="572.6" y="266.0" fill="#1f2937" font-size="11">180×  (2.867 s)</text>
<text x="112" y="290.0" text-anchor="end" fill="#1f2937">Fortran</text>
<rect x="257.5" y="278" width="56.6" height="16" fill="#94a3b8"/>
<text x="319.1" y="290.0" fill="#1f2937" font-size="11">2.58×  (0.041 s)</text>
<text x="112" y="314.0" text-anchor="end" fill="#1f2937">Pascal</text>
<rect x="257.5" y="302" width="63.3" height="16" fill="#94a3b8"/>
<text x="325.8" y="314.0" fill="#1f2937" font-size="11">2.89×  (0.046 s)</text>
<line x1="257.5" y1="52" x2="257.5" y2="324" stroke="#1f2937" stroke-width="1.5"/>
<text x="395.0" y="356" text-anchor="middle" fill="#6b7280">ratio to C (C = 1)</text>
</svg>
