<svg xmlns="http://www.w3.org/2000/svg" width="760" height="368" viewBox="0 0 760 368" font-family="Helvetica, Arial, sans-serif" font-size="12">
<rect x="0" y="0" width="760" height="368" fill="#ffffff"/>
<text x="16" y="22" font-size="15" font-weight="bold" fill="#1f2937">pidigits — best, official</text>
<text x="16" y="40" fill="#6b7280">wall-time ratio to C; lower is faster; log scale</text>
<line x1="120.0" y1="54" x2="120.0" y2="322" stroke="#d1d5db" stroke-width="1"/>
<text x="120.0" y="338" text-anchor="middle" fill="#6b7280" font-size="11">1×</text>
<line x1="202.8" y1="54" x2="202.8" y2="322" stroke="#e5e7eb" stroke-width="1"/>
<text x="202.8" y="338" text-anchor="middle" fill="#6b7280" font-size="11">2×</text>
<line x1="312.2" y1="54" x2="312.2" y2="322" stroke="#e5e7eb" stroke-width="1"/>
<text x="312.2" y="338" text-anchor="middle" fill="#6b7280" font-size="11">5×</text>
<line x1="395.0" y1="54" x2="395.0" y2="322" stroke="#d1d5db" stroke-width="1"/>
<text x="395.0" y="338" text-anchor="middle" fill="#6b7280" font-size="11">10×</text>
<line x1="477.8" y1="54" x2="477.8" y2="322" stroke="#e5e7eb" stroke-width="1"/>
<text x="477.8" y="338" text-anchor="middle" fill="#6b7280" font-size="11">20×</text>
<line x1="587.2" y1="54" x2="587.2" y2="322" stroke="#e5e7eb" stroke-width="1"/>
<text x="587.2" y="338" text-anchor="middle" fill="#6b7280" font-size="11">50×</text>
<line x1="670.0" y1="54" x2="670.0" y2="322" stroke="#d1d5db" stroke-width="1"/>
<text x="670.0" y="338" text-anchor="middle" fill="#6b7280" font-size="11">100×</text>
<text x="112" y="74.0" text-anchor="end" fill="#1f2937">Resid</text>
<rect x="120.0" y="62" width="26.8" height="16" fill="#d97706"/>
<text x="151.8" y="74.0" fill="#1f2937" font-size="11">1.25×  (0.459 s)</text>
<text x="112" y="98.0" text-anchor="end" fill="#1f2937">C</text>
<rect x="120.0" y="86" width="1.5" height="16" fill="#2563eb"/>
<text x="125.0" y="98.0" fill="#1f2937" font-size="11">1.00×  (0.367 s)</text>
<text x="112" y="122.0" text-anchor="end" fill="#1f2937">C++</text>
<rect x="120.0" y="110" width="11.2" height="16" fill="#94a3b8"/>
<text x="136.2" y="122.0" fill="#1f2937" font-size="11">1.10×  (0.403 s)</text>
<text x="112" y="146.0" text-anchor="end" fill="#1f2937">Rust</text>
<rect x="120.0" y="134" width="2.3" height="16" fill="#94a3b8"/>
<text x="127.3" y="146.0" fill="#1f2937" font-size="11">1.02×  (0.374 s)</text>
<text x="112" y="170.0" text-anchor="end" fill="#1f2937">Go</text>
<rect x="120.0" y="158" width="16.3" height="16" fill="#94a3b8"/>
<text x="141.3" y="170.0" fill="#1f2937" font-size="11">1.15×  (0.420 s)</text>
<text x="112" y="194.0" text-anchor="end" fill="#1f2937">Java</text>
<rect x="120.0" y="182" width="16.9" height="16" fill="#94a3b8"/>
<text x="141.9" y="194.0" fill="#1f2937" font-size="11">1.15×  (0.422 s)</text>
<text x="112" y="218.0" text-anchor="end" fill="#1f2937">C#</text>
<rect x="120.0" y="206" width="16.1" height="16" fill="#94a3b8"/>
<text x="141.1" y="218.0" fill="#1f2937" font-size="11">1.14×  (0.420 s)</text>
<text x="112" y="242.0" text-anchor="end" fill="#1f2937">JavaScript</text>
<rect x="120.0" y="230" width="311.3" height="16" fill="#94a3b8"/>
<text x="436.3" y="242.0" fill="#1f2937" font-size="11">13.6×  (4.971 s)</text>
<text x="112" y="266.0" text-anchor="end" fill="#1f2937">Python</text>
<rect x="120.0" y="254" width="50.9" height="16" fill="#94a3b8"/>
<text x="175.9" y="266.0" fill="#1f2937" font-size="11">1.53×  (0.562 s)</text>
<text x="112" y="290.0" text-anchor="end" fill="#1f2937">Fortran</text>
<rect x="120.0" y="278" width="11.2" height="16" fill="#94a3b8"/>
<text x="136.2" y="290.0" fill="#1f2937" font-size="11">1.10×  (0.403 s)</text>
<text x="112" y="314.0" text-anchor="end" fill="#1f2937">Pascal</text>
<rect x="120.0" y="302" width="11.1" height="16" fill="#94a3b8"/>
<text x="136.1" y="314.0" fill="#1f2937" font-size="11">1.10×  (0.402 s)</text>
<line x1="120.0" y1="52" x2="120.0" y2="324" stroke="#1f2937" stroke-width="1.5"/>
<text x="395.0" y="356" text-anchor="middle" fill="#6b7280">ratio to C (C = 1)</text>
</svg>
