<svg xmlns="http://www.w3.org/2000/svg" width="760" height="368" viewBox="0 0 760 368" font-family="Helvetica, Arial, sans-serif" font-size="12">
<rect x="0" y="0" width="760" height="368" fill="#ffffff"/>
<text x="16" y="22" font-size="15" font-weight="bold" fill="#1f2937">reverse-complement — best, official</text>
<text x="16" y="40" fill="#6b7280">wall-time ratio to C; lower is faster; log scale</text>
<line x1="120.0" y1="54" x2="120.0" y2="322" stroke="#d1d5db" stroke-width="1"/>
<text x="120.0" y="338" text-anchor="middle" fill="#6b7280" font-size="11">1×</text>
<line x1="202.8" y1="54" x2="202.8" y2="322" stroke="#e5e7eb" stroke-width="1"/>
<text x="202.8" y="338" text-anchor="middle" fill="#6b7280" font-size="11">2×</text>
<line x1="312.2" y1="54" x2="312.2" y2="322" stroke="#e5e7eb" stroke-width="1"/>
<text x="312.2" y="338" text-anchor="middle" fill="#6b7280" font-size="11">5×</text>
<line x1="395.0" y1="54" x2="395.0" y2="322" stroke="#d1d5db" stroke-width="1"/>
<text x="395.0" y="338" text-anchor="middle" fill="#6b7280" font-size="11">10×</text>
<line x1="477.8" y1="54" x2="477.8" y2="322" stroke="#e5e7eb" stroke-width="1"/>
<text x="477.8" y="338" text-anchor="middle" fill="#6b7280" font-size="11">20×</text>
<line x1="587.2" y1="54" x2="587.2" y2="322" stroke="#e5e7eb" stroke-width="1"/>
<text x="587.2" y="338" text-anchor="middle" fill="#6b7280" font-size="11">50×</text>
<line x1="670.0" y1="54" x2="670.0" y2="322" stroke="#d1d5db" stroke-width="1"/>
<text x="670.0" y="338" text-anchor="middle" fill="#6b7280" font-size="11">100×</text>
<text x="112" y="74.0" text-anchor="end" fill="#1f2937">Resid</text>
<rect x="120.0" y="62" width="138.6" height="16" fill="#d97706"/>
<text x="263.6" y="74.0" fill="#1f2937" font-size="11">3.19×  (0.273 s)</text>
<text x="112" y="98.0" text-anchor="end" fill="#1f2937">C</text>
<rect x="120.0" y="86" width="1.5" height="16" fill="#2563eb"/>
<text x="125.0" y="98.0" fill="#1f2937" font-size="11">1.00×  (0.085 s)</text>
<text x="112" y="122.0" text-anchor="end" fill="#1f2937">C++</text>
<rect x="120.0" y="110" width="17.5" height="16" fill="#94a3b8"/>
<text x="142.5" y="122.0" fill="#1f2937" font-size="11">1.16×  (0.099 s)</text>
<text x="112" y="146.0" text-anchor="end" fill="#1f2937">Rust</text>
<rect x="120.0" y="134" width="3.4" height="16" fill="#94a3b8"/>
<text x="128.4" y="146.0" fill="#1f2937" font-size="11">1.03×  (0.088 s)</text>
<text x="112" y="170.0" text-anchor="end" fill="#1f2937">Go</text>
<rect x="120.0" y="158" width="40.1" height="16" fill="#94a3b8"/>
<text x="165.1" y="170.0" fill="#1f2937" font-size="11">1.40×  (0.120 s)</text>
<text x="112" y="194.0" text-anchor="end" fill="#1f2937">Java</text>
<rect x="120.0" y="182" width="137.1" height="16" fill="#94a3b8"/>
<text x="262.1" y="194.0" fill="#1f2937" font-size="11">3.15×  (0.270 s)</text>
<text x="112" y="218.0" text-anchor="end" fill="#1f2937">C#</text>
<rect x="120.0" y="206" width="13.2" height="16" fill="#94a3b8"/>
<text x="138.2" y="218.0" fill="#1f2937" font-size="11">1.12×  (0.095 s)</text>
<text x="112" y="242.0" text-anchor="end" fill="#1f2937">JavaScript</text>
<rect x="120.0" y="230" width="371.9" height="16" fill="#94a3b8"/>
<text x="496.9" y="242.0" fill="#1f2937" font-size="11">22.5×  (1.924 s)</text>
<text x="112" y="266.0" text-anchor="end" fill="#1f2937">Python</text>
<rect x="120.0" y="254" width="169.0" height="16" fill="#94a3b8"/>
<text x="294.0" y="266.0" fill="#1f2937" font-size="11">4.12×  (0.352 s)</text>
<text x="112" y="290.0" text-anchor="end" fill="#1f2937">Fortran</text>
<rect x="120.0" y="278" width="129.4" height="16" fill="#94a3b8"/>
<text x="254.4" y="290.0" fill="#1f2937" font-size="11">2.95×  (0.253 s)</text>
<text x="112" y="314.0" text-anchor="end" fill="#1f2937">Pascal</text>
<rect x="120.0" y="302" width="158.4" height="16" fill="#94a3b8"/>
<text x="283.4" y="314.0" fill="#1f2937" font-size="11">3.77×  (0.322 s)</text>
<line x1="120.0" y1="52" x2="120.0" y2="324" stroke="#1f2937" stroke-width="1.5"/>
<text x="395.0" y="356" text-anchor="middle" fill="#6b7280">ratio to C (C = 1)</text>
</svg>
