<svg xmlns="http://www.w3.org/2000/svg" width="760" height="368" viewBox="0 0 760 368" font-family="Helvetica, Arial, sans-serif" font-size="12">
<rect x="0" y="0" width="760" height="368" fill="#ffffff"/>
<text x="16" y="22" font-size="15" font-weight="bold" fill="#1f2937">reverse-complement — st, official</text>
<text x="16" y="40" fill="#6b7280">wall-time ratio to C; lower is faster; log scale</text>
<line x1="120.0" y1="54" x2="120.0" y2="322" stroke="#d1d5db" stroke-width="1"/>
<text x="120.0" y="338" text-anchor="middle" fill="#6b7280" font-size="11">1×</text>
<line x1="285.6" y1="54" x2="285.6" y2="322" stroke="#e5e7eb" stroke-width="1"/>
<text x="285.6" y="338" text-anchor="middle" fill="#6b7280" font-size="11">2×</text>
<line x1="504.4" y1="54" x2="504.4" y2="322" stroke="#e5e7eb" stroke-width="1"/>
<text x="504.4" y="338" text-anchor="middle" fill="#6b7280" font-size="11">5×</text>
<line x1="670.0" y1="54" x2="670.0" y2="322" stroke="#d1d5db" stroke-width="1"/>
<text x="670.0" y="338" text-anchor="middle" fill="#6b7280" font-size="11">10×</text>
<text x="112" y="74.0" text-anchor="end" fill="#1f2937">Resid</text>
<rect x="120.0" y="62" width="166.8" height="16" fill="#d97706"/>
<text x="291.8" y="74.0" fill="#1f2937" font-size="11">2.01×  (0.378 s)</text>
<text x="112" y="98.0" text-anchor="end" fill="#1f2937">C</text>
<rect x="120.0" y="86" width="1.5" height="16" fill="#2563eb"/>
<text x="125.0" y="98.0" fill="#1f2937" font-size="11">1.00×  (0.188 s)</text>
<text x="112" y="122.0" text-anchor="end" fill="#1f2937">C++</text>
<rect x="120.0" y="110" width="193.5" height="16" fill="#94a3b8"/>
<text x="318.5" y="122.0" fill="#1f2937" font-size="11">2.25×  (0.422 s)</text>
<text x="112" y="146.0" text-anchor="end" fill="#1f2937">Rust</text>
<rect x="120.0" y="134" width="41.5" height="16" fill="#94a3b8"/>
<text x="166.5" y="146.0" fill="#1f2937" font-size="11">1.19×  (0.223 s)</text>
<text x="112" y="170.0" text-anchor="end" fill="#1f2937">Go</text>
<rect x="120.0" y="158" width="32.9" height="16" fill="#94a3b8"/>
<text x="157.9" y="170.0" fill="#1f2937" font-size="11">1.15×  (0.216 s)</text>
<text x="112" y="194.0" text-anchor="end" fill="#1f2937">Java</text>
<rect x="120.0" y="182" width="246.6" height="16" fill="#94a3b8"/>
<text x="371.6" y="194.0" fill="#1f2937" font-size="11">2.81×  (0.527 s)</text>
<text x="112" y="218.0" text-anchor="end" fill="#1f2937">C#</text>
<rect x="120.0" y="206" width="161.4" height="16" fill="#94a3b8"/>
<text x="286.4" y="218.0" fill="#1f2937" font-size="11">1.97×  (0.369 s)</text>
<text x="112" y="242.0" text-anchor="end" fill="#1f2937">JavaScript</text>
<rect x="120.0" y="230" width="262.4" height="16" fill="#94a3b8"/>
<text x="387.4" y="242.0" fill="#1f2937" font-size="11">3.00×  (0.563 s)</text>
<text x="112" y="266.0" text-anchor="end" fill="#1f2937">Python</text>
<rect x="120.0" y="254" width="425.1" height="16" fill="#94a3b8"/>
<text x="550.1" y="266.0" fill="#1f2937" font-size="11">5.93×  (1.113 s)</text>
<text x="112" y="290.0" text-anchor="end" fill="#1f2937">Fortran</text>
<rect x="120.0" y="278" width="124.9" height="16" fill="#94a3b8"/>
<text x="249.9" y="290.0" fill="#1f2937" font-size="11">1.69×  (0.317 s)</text>
<text x="112" y="314.0" text-anchor="end" fill="#1f2937">Pascal</text>
<rect x="120.0" y="302" width="274.4" height="16" fill="#94a3b8"/>
<text x="399.4" y="314.0" fill="#1f2937" font-size="11">3.15×  (0.592 s)</text>
<line x1="120.0" y1="52" x2="120.0" y2="324" stroke="#1f2937" stroke-width="1.5"/>
<text x="395.0" y="356" text-anchor="middle" fill="#6b7280">ratio to C (C = 1)</text>
</svg>
